<?xml version="1.0" encoding="UTF-8" standalone="no"?>
<!-- Created with Inkscape (http://www.inkscape.org/) -->

<svg
   width="174.3459"
   height="174.34592"
   viewBox="0 0 174.3459 174.34592"
   version="1.1"
   id="svg1"
   xml:space="preserve"
   xmlns="http://www.w3.org/2000/svg"
   xmlns:svg="http://www.w3.org/2000/svg"><defs
     id="defs1" /><g
     id="layer1"
     transform="translate(-170.32705,-142.82704)"><path
       d="m 216.5,212 c 19.402,-77.607 19.041,-18.288 19.002,12.718 -0.001,0.557 0.806,0.608 1.001,0.085 26.097,-69.981 14.624,-23.265 21.036,-5.928 0.156,0.421 0.745,0.338 0.899,-0.084 13.249,-36.368 8.262,-4.317 19.521,6.026 m 0,0 c 1.405,1.291 3.063,2.243 5.041,2.683 18,4 26,-4 25,-6.5 -1,-2.5 -9.517,-1.382 -13,-0.5 z m 0,0 -40.918,10.366 M 298.5,248 c -19.402,77.607 -19.041,18.288 -19.002,-12.718 0.001,-0.557 -0.806,-0.608 -1.001,-0.085 -26.097,69.981 -14.624,23.265 -21.036,5.928 -0.156,-0.421 -0.745,-0.338 -0.899,0.084 -13.249,36.368 -8.262,4.317 -19.521,-6.026 m 0,0 c -1.405,-1.291 -3.063,-2.243 -5.041,-2.683 -18,-4 -26,4 -25,6.5 1,2.5 9.517,1.382 13,0.5 z"
       stroke="#000000"
       stroke-linecap="round"
       id="path2"
       style="fill:none;stroke:#000000;stroke-width:1;stroke-dasharray:none;stroke-opacity:1" /></g><g
     id="layer3"
     style="display:inline"
     transform="translate(-168.32086,-140.69051)"><path
       d="m 179.51571,234.09999 0.0227,0.4314 -7.90927,3.76445 q -0.65595,0.32288 -1.158,0.52552 l 1.22272,0.0959 8.71295,0.85573 0.0412,0.78292 -11.61922,-1.27973 -0.0235,-0.44738 8.28098,-4.0083 q 0.5769,-0.30271 1.09577,-0.49021 -0.17827,-0.0387 -1.12852,-0.43735 l -8.69345,-3.53245 -0.0227,-0.4314 11.42853,-2.34726 0.042,0.79889 -8.61049,1.70242 q -0.80816,0.17067 -1.22358,0.19251 0.0168,0.0151 0.16397,0.0715 0.13035,0.0412 0.45747,0.16821 0.3103,0.11186 0.6534,0.23802 z m -2.71917,-12.4462 3.37294,1.9487 -0.0989,0.74546 -9.78462,-5.68874 0.0568,-0.42825 10.93395,-2.97132 -0.10735,0.80891 -3.76658,1.0173 z m -5.31375,-3.01328 q 0.68217,0.33264 1.13274,0.58612 l 3.59612,2.09129 0.53888,-4.06039 -3.99916,1.06713 q -0.93662,0.24692 -1.26858,0.31585 z m 10.76189,-7.39029 -9.92732,-2.87773 q 0.27553,-1.35277 0.54281,-2.27482 0.40983,-1.41379 1.41475,-2.12201 0.98954,-0.71267 2.34187,-0.32066 0.90668,0.26283 1.52358,1.00805 0.61691,0.74522 0.90175,1.54412 2.95815,-1.12488 3.55927,-1.41707 1.16059,-0.61311 1.58199,-1.60709 l 0.47194,0.15346 q -0.26483,0.85612 -0.65126,1.32716 -0.40179,0.46658 -1.12629,0.83961 -0.72006,0.35767 -3.73077,1.43399 -0.36083,1.24476 -0.78513,2.42114 l 4.08772,1.18495 z m -3.793,-4.09808 q 0.17373,-0.59933 -0.42491,-1.5225 -0.59864,-0.92318 -1.65899,-1.23055 -1.06035,-0.30737 -1.82295,0.25453 -0.76259,0.56189 -1.09669,1.71445 -0.17819,0.61469 -0.35727,1.46235 l 4.68704,1.35867 q 0.39758,-1.08417 0.67377,-2.03695 z m 7.52998,-7.01039 -9.56332,-4.04603 0.28678,-0.67783 9.56332,4.04603 z m 5.16733,-9.87865 q -1.14268,1.908 -3.24691,2.40089 -2.10423,0.49289 -4.02595,-0.65801 -1.93545,-1.15912 -2.49419,-3.24683 -0.55873,-2.08771 0.58395,-3.99571 1.14268,-1.908 3.24691,-2.40089 2.10422,-0.49289 4.03968,0.66623 1.92172,1.1509 2.48046,3.23861 0.55873,2.08771 -0.58395,3.99571 z m -8.62031,-5.16261 q -0.98649,1.64719 -0.47738,3.44408 0.51732,1.78317 2.21942,2.80254 1.68838,1.01114 3.50457,0.6255 1.8107,-0.40759 2.79718,-2.05478 0.99471,-1.66092 0.49111,-3.43586 -0.51732,-1.78316 -2.2057,-2.79431 -1.7021,-1.01937 -3.5183,-0.63373 -1.81619,0.38564 -2.8109,2.04656 z m 14.33236,-3.56576 -7.77508,-6.97918 0.23514,-0.26195 10.38731,0.1648 q 0.55539,0.004 1.06804,0.0557 0.51142,0.0291 0.53402,0.0279 -0.30714,-0.2327 -1.14061,-0.98085 l -5.59615,-5.0233 0.49165,-0.54771 7.77507,6.97918 -0.23513,0.26195 -10.56807,-0.15505 -1.38559,-0.0612 q 0.25951,0.18994 1.14061,0.98084 l 5.56043,4.99124 z m 8.45305,-13.6583 1.06842,3.74601 -0.58953,0.46686 -3.07454,-10.89256 0.33867,-0.26819 9.92316,5.46909 -0.6397,0.50659 -3.41401,-1.88853 z m -1.72262,-5.86075 q 0.25884,0.71344 0.40631,1.20894 l 1.12961,4.00369 3.21108,-2.54287 -3.61579,-2.01447 q -0.84475,-0.47396 -1.13121,-0.65529 z m 24.30972,-8.46832 0.57124,-0.25112 q 0.56954,1.37505 0.27328,2.72875 l 2.24448,0.9708 -0.87883,0.38635 -1.57793,-0.68706 q -0.43261,0.92425 -1.18619,1.67501 -0.75358,0.75076 -1.60312,1.12423 -1.42077,0.62459 -2.48392,0.39286 -1.05495,-0.25282 -1.52501,-1.32206 -0.47005,-1.06924 -0.16218,-2.07847 0.30143,-1.02389 1.10263,-2.30244 -2.56722,-1.10857 -3.01152,-2.11922 -0.4443,-1.01065 -0.0363,-1.87165 0.40156,-0.87564 1.66121,-1.42941 1.25965,-0.55376 2.15348,-0.23011 0.88739,0.309 1.25442,1.14388 0.36059,0.82024 0.0527,1.82948 -0.30786,1.00924 -1.04114,2.36279 l 4.455,1.90411 q 0.12022,-0.40241 0.032,-1.08021 -0.0882,-0.6778 -0.29429,-1.14651 z m -2.32031,5.33708 q 1.47936,-0.65035 2.33462,-2.44204 l -4.58796,-1.96801 q -1.58825,2.27123 -1.00873,3.58947 0.39279,0.89348 1.24155,1.1146 0.84875,0.22111 2.02052,-0.29402 z m -1.49157,-8.7998 q -0.32195,-0.73236 -0.9856,-0.92998 -0.649,-0.20407 -1.51318,0.17584 -1.96272,0.86284 -1.28017,2.41544 0.1803,0.41012 0.64179,0.784 0.4697,0.35281 0.91074,0.56091 0.43461,0.19345 1.19371,0.48894 1.52853,-2.36732 1.03271,-3.49515 z m 23.81556,2.41507 -0.42873,0.0531 -4.31341,-7.62378 q -0.36839,-0.63152 -0.60596,-1.11802 l -0.009,1.22645 -0.2385,8.75161 -0.77806,0.0963 0.45627,-11.68057 0.44461,-0.055 4.58289,7.97735 q 0.34268,0.55409 0.56634,1.05843 0.026,-0.18056 0.3566,-1.15658 l 2.90991,-8.92113 0.42873,-0.0531 3.14821,11.2343 -0.79394,0.0983 -2.30604,-8.46883 q -0.22729,-0.79409 -0.2784,-1.20694 -0.0139,0.0179 -0.0597,0.16862 -0.0319,0.13293 -0.1355,0.46819 -0.0897,0.31743 -0.1913,0.66858 z m 12.22318,-3.59102 -1.70572,3.5021 -0.75059,-0.0461 4.9838,-10.16181 0.43119,0.0265 3.7358,10.69692 -0.81447,-0.05 -1.28066,-3.68536 z m 2.63064,-5.51321 q -0.28365,0.70394 -0.50469,1.17128 l -1.83221,3.73479 4.08831,0.25089 -1.34679,-3.91384 q -0.31243,-0.91686 -0.40462,-1.24312 z m 8.13011,10.2202 2.14468,-10.11105 q 1.36929,0.17595 2.3084,0.37515 1.43996,0.30543 2.21971,1.25591 0.78307,0.93483 0.49091,2.31219 -0.19587,0.92345 -0.89403,1.59316 -0.69815,0.66971 -1.4741,1.01216 1.33801,2.86805 1.67335,3.44622 0.69627,1.11269 1.71838,1.46034 l -0.11857,0.48188 q -0.87318,-0.20157 -1.37119,-0.55254 -0.49469,-0.36663 -0.91967,-1.06194 -0.40932,-0.69199 -1.70275,-3.61601 -1.2678,-0.26892 -2.47203,-0.60613 l -0.88311,4.16337 z m 3.80998,-4.0823 q 0.61042,0.12948 1.48739,-0.53502 0.87696,-0.66449 1.10604,-1.74446 0.22907,-1.07998 -0.38704,-1.79948 -0.61612,-0.7195 -1.79,-0.96849 -0.62607,-0.1328 -1.48455,-0.24947 l -1.01258,4.77379 q 1.11033,0.3173 2.08074,0.52313 z m 14.93017,9.22614 q -1.36066,0.20052 -3.36405,-0.56312 -1.98845,-0.75793 -2.96634,-2.77448 -0.96294,-2.01084 -0.15371,-4.13384 0.81492,-2.13796 2.67766,-3.07173 1.8777,-0.92808 3.9708,-0.13025 1.68943,0.64396 3.10465,1.7827 l -0.39596,0.49974 q -1.37251,-1.07109 -3.03204,-1.70366 -1.65953,-0.63256 -3.28018,0.20514 -1.6,0.82846 -2.30095,2.6674 -0.69525,1.82398 0.11537,3.60554 0.82557,1.78725 2.5449,2.44261 1.71933,0.65536 3.03795,0.61004 z"
       id="text106"
       style="font-size:16px;font-family:'Julius Sans One';-inkscape-font-specification:'Julius Sans One';letter-spacing:2px;direction:rtl;fill-rule:evenodd;stroke-linecap:round"
       aria-label="Mariona &amp; Marc" /><circle
       style="display:none;fill:#000000;fill-opacity:0;stroke:#000000;stroke-width:1;stroke-linecap:round;stroke-linejoin:miter;stroke-dasharray:none;stroke-dashoffset:0"
       id="path5"
       cy="332.75311"
       cx="-92.095642"
       transform="rotate(-63.69907)"
       r="77.5" /><path
       style="font-size:16px;font-family:'Julius Sans One';-inkscape-font-specification:'Julius Sans One';letter-spacing:2px;display:none;fill-rule:evenodd;stroke-width:3.6;stroke-linecap:round;stroke-dasharray:none"
       d="m 179.44918,227.46436 -0.014,0.43177 -8.20031,3.07936 q -0.681,0.26603 -1.19844,0.42532 l 1.21016,0.19939 8.60884,1.59237 -0.0255,0.78359 -11.46861,-2.26158 0.0145,-0.44776 8.59138,-3.29078 q 0.60052,-0.25263 1.13344,-0.3954 -0.17435,-0.0537 -1.08731,-0.53159 l -8.36216,-4.25776 0.014,-0.43177 11.58655,-1.36851 -0.026,0.79958 -8.72394,0.96524 q -0.81972,0.10144 -1.2355,0.0879 0.0155,0.0165 0.15731,0.0851 0.12638,0.0521 0.44153,0.20645 0.29969,0.1378 0.63083,0.29264 z m -1.65265,-12.6321 3.19532,2.22802 -0.16187,0.73437 -9.26632,-6.49892 0.093,-0.42187 11.14674,-2.0323 -0.17564,0.79687 -3.83935,0.69384 z m -5.03874,-3.45355 q 0.65146,0.38936 1.07888,0.68018 l 3.40559,2.38905 0.88166,-3.99999 -4.07532,0.72376 q -0.9542,0.16651 -1.29081,0.207 z m 11.35044,-6.44993 -9.64716,-3.71015 q 0.38939,-1.3245 0.73399,-2.22052 0.52838,-1.3739 1.58979,-1.99425 1.04648,-0.62608 2.36065,-0.12067 0.88108,0.33885 1.4325,1.13376 0.55141,0.79491 0.76739,1.6151 3.04297,-0.86967 3.66673,-1.10977 1.20845,-0.51237 1.71272,-1.46698 l 0.4572,0.19298 q -0.33656,0.83054 -0.76158,1.26707 -0.43995,0.43078 -1.19351,0.74096 -0.74782,0.29524 -3.83904,1.11207 -0.4652,1.20963 -0.98785,2.34574 l 3.97236,1.52771 z m -3.43138,-4.4053 q 0.22399,-0.58241 -0.29411,-1.55308 -0.51811,-0.97066 -1.54853,-1.36695 -1.03043,-0.39629 -1.83797,0.0988 -0.80755,0.49512 -1.2383,1.61515 -0.22973,0.59735 -0.48013,1.42674 l 4.55477,1.7517 q 0.48819,-1.04651 0.84427,-1.9724 z m 8.09799,-6.3458 -9.18529,-4.84334 0.34329,-0.65104 9.18528,4.84334 z m 5.98735,-9.40426 q -1.30054,1.8041 -3.43902,2.11656 -2.13847,0.31247 -3.95555,-0.99743 -1.83006,-1.31926 -2.20953,-3.44687 -0.37947,-2.1276 0.92107,-3.9317 1.30055,-1.8041 3.43902,-2.11656 2.13848,-0.31247 3.96854,1.00679 1.81707,1.30989 2.19654,3.4375 0.37948,2.12761 -0.92107,3.93171 z m -8.15088,-5.87583 q -1.12277,1.55749 -0.76806,3.39112 0.36407,1.82065 1.97348,2.98084 1.59643,1.15084 3.43881,0.92079 1.83876,-0.2524 2.96153,-1.80989 1.13213,-1.57047 0.78104,-3.38176 -0.36407,-1.82065 -1.9605,-2.97149 -1.60941,-1.16019 -3.45179,-0.93014 -1.84239,0.23006 -2.97451,1.80053 z m 14.58335,-2.33608 -7.15447,-7.61408 0.25652,-0.24104 10.33582,1.04609 q 0.55305,0.0512 1.05945,0.14616 0.50711,0.0724 0.52973,0.0731 -0.28627,-0.25793 -1.05321,-1.07414 l -5.14947,-5.48027 0.53637,-0.504 7.15447,7.61409 -0.25652,0.24103 -10.51675,-1.05171 -1.37539,-0.17864 q 0.24245,0.2113 1.05322,1.07415 l 5.1166,5.44529 z m 9.58211,-12.89133 0.74653,3.82319 -0.62704,0.41512 -2.13866,-11.11426 0.36021,-0.23847 9.42301,6.29182 -0.6804,0.45045 -3.24135,-2.17156 z m -1.21883,-5.98584 q 0.19734,0.73284 0.30221,1.23907 l 0.78562,4.08514 3.41538,-2.26107 -3.43171,-2.31417 q -0.80146,-0.54397 -1.0715,-0.74897 z m 24.9409,-6.37386 0.59049,-0.20172 q 0.45075,1.41844 0.0406,2.7421 l 2.15396,1.15785 -0.90846,0.31034 -1.5139,-0.81855 q -0.50952,0.8842 -1.32412,1.56826 -0.8146,0.68407 -1.69277,0.98407 -1.46867,0.50172 -2.50831,0.18056 -1.02968,-0.34147 -1.40726,-1.44676 -0.37758,-1.10528 0.0149,-2.08474 0.38727,-0.99459 1.29412,-2.20051 -2.46383,-1.32252 -2.82072,-2.36724 -0.35689,-1.04472 0.12273,-1.86798 0.47444,-0.83839 1.77656,-1.28321 1.30212,-0.44482 2.16524,-0.0465 0.85796,0.38323 1.15278,1.24626 0.28965,0.84789 -0.10279,1.82735 -0.39244,0.97945 -1.23798,2.26586 l 4.27726,2.27546 q 0.15394,-0.39074 0.12357,-1.07359 -0.0304,-0.68284 -0.19589,-1.16735 z m -2.76505,5.12082 q 1.52923,-0.52241 2.53351,-2.23502 l -4.4043,-2.35042 q -1.77534,2.12819 -1.30983,3.49087 0.31551,0.9236 1.14243,1.21598 0.82692,0.29238 2.03819,-0.12141 z m -0.73908,-8.89467 q -0.25862,-0.75704 -0.9031,-1.0103 -0.62933,-0.25843 -1.52264,0.0467 -2.02888,0.69309 -1.48061,2.29803 0.14482,0.42394 0.57291,0.83566 0.43805,0.39141 0.85983,0.6362 0.41661,0.22966 1.14789,0.58852 1.72399,-2.229 1.32572,-3.39485 z m 23.52453,4.42827 -0.43169,0.0165 -3.65058,-7.96246 q -0.31344,-0.66052 -0.50886,-1.16543 l -0.11347,1.22122 -0.98064,8.69977 -0.78343,0.0299 1.4463,-11.59966 0.44767,-0.0171 3.88908,8.33763 q 0.2944,0.58119 0.47443,1.1027 0.0412,-0.17771 0.4535,-1.12213 l 3.65681,-8.64188 0.43168,-0.0165 2.18306,11.46103 -0.79942,0.0305 -1.57871,-8.63403 q -0.15905,-0.81052 -0.17493,-1.22621 -0.0154,0.0166 -0.0738,0.16293 -0.0431,0.12974 -0.17476,0.455 -0.11631,0.30867 -0.24738,0.64992 z m 12.48392,-2.54031 -1.99689,3.34464 -0.74396,-0.10962 5.82854,-9.702 0.42738,0.063 2.81415,10.97546 -0.80729,-0.11895 -0.96315,-3.78079 z m 3.08921,-5.26997 q -0.34239,0.67733 -0.60231,1.12421 l -2.14267,3.56575 4.05224,0.59708 -1.00964,-4.01405 q -0.23346,-0.94008 -0.29762,-1.27299 z m 7.23309,10.87355 2.99536,-9.89246 q 1.34941,0.29157 2.26821,0.56977 1.40883,0.42659 2.10507,1.43984 0.70088,0.99793 0.29284,2.34551 -0.27357,0.90349 -1.02606,1.51151 -0.75249,0.60802 -1.55471,0.88336 1.08968,2.97129 1.37472,3.57584 0.59929,1.16778 1.5882,1.60095 l -0.15905,0.47008 q -0.85292,-0.27497 -1.31934,-0.66696 -0.46178,-0.4073 -0.82619,-1.13618 -0.34909,-0.72425 -1.3896,-3.74752 -1.24039,-0.37558 -2.41165,-0.81382 l -1.23338,4.07337 z m 4.14281,-3.74409 q 0.59722,0.18083 1.52744,-0.40681 0.93021,-0.58764 1.25015,-1.64427 0.31994,-1.05662 -0.23287,-1.82583 -0.55281,-0.76921 -1.70131,-1.11697 -0.61254,-0.18547 -1.45801,-0.3746 l -1.41421,4.67058 q 1.07938,0.41042 2.02881,0.6979 z m 14.09297,10.46038 q -1.37277,0.0843 -3.3041,-0.84669 -1.91692,-0.92402 -2.72008,-3.0163 -0.78874,-2.08534 0.19781,-4.13198 0.99349,-2.06104 2.92879,-2.8333 1.94971,-0.76532 3.96751,0.20733 1.62866,0.78507 2.9421,2.03986 l -0.43696,0.46432 q -1.27663,-1.18376 -2.87646,-1.95493 -1.59984,-0.77117 -3.28575,-0.0741 -1.66456,0.68963 -2.51911,2.46242 -0.84759,1.75837 -0.19115,3.60232 0.67085,1.85089 2.32833,2.64985 1.65749,0.79896 2.97519,0.86576 z"
       id="text5"
       aria-label="Mariona &amp; Marc" /><path
       style="display:inline;fill:#000000;fill-opacity:0;stroke:#000000;stroke-width:1.04485;stroke-linecap:round;stroke-linejoin:miter;stroke-dasharray:none;stroke-dashoffset:0"
       id="circle6"
       transform="rotate(-3.69907)"
       d="m 287.87107,179.31751 a 80.976082,80.976082 0 0 1 30.68096,93.57456 80.976082,80.976082 0 0 1 -82.34939,54.00089 80.976082,80.976082 0 0 1 -73.5909,-65.43623" /><g
       id="g74"
       style="fill:none;fill-opacity:1;stroke:#000000;stroke-opacity:1"><path
         style="display:inline;fill:none;fill-opacity:1;fill-rule:evenodd;stroke:#000000;stroke-width:1;stroke-linecap:round;stroke-dasharray:none;stroke-opacity:1"
         d="M 299.32375,298.44764 C 287.3839,295.03238 278,301 278,301 c 0,0 17.22861,1.19927 21.32375,-2.55236 z"
         id="path67" /><path
         style="display:inline;fill:#000000;fill-opacity:1;fill-rule:evenodd;stroke:#000000;stroke-width:1;stroke-linecap:round;stroke-dasharray:none;stroke-opacity:1"
         d="m 306,295 c -1.76315,12.29288 -11.04491,18.4181 -11.04491,18.4181 0,0 5.94719,-16.21401 11.04491,-18.4181 z"
         id="path68" /><path
         style="display:inline;fill:none;fill-opacity:1;fill-rule:evenodd;stroke:#000000;stroke-width:1;stroke-linecap:round;stroke-dasharray:none;stroke-opacity:1"
         d="m 308,293 c -11.55807,-4.54255 -21.47015,0.49936 -21.47015,0.49936 0,0 17.03469,2.84301 21.47015,-0.49936 z"
         id="path69" /><path
         style="display:inline;fill:none;fill-opacity:1;fill-rule:evenodd;stroke:#000000;stroke-width:1;stroke-linecap:round;stroke-dasharray:none;stroke-opacity:1"
         d="m 313,290 c 0.72964,12.39722 -7.14044,20.25415 -7.14044,20.25415 0,0 2.58617,-17.07557 7.14044,-20.25415 z"
         id="path70" /><path
         style="display:inline;fill:#000000;fill-opacity:1;fill-rule:evenodd;stroke:#000000;stroke-width:1;stroke-linecap:round;stroke-dasharray:none;stroke-opacity:1"
         d="m 316,285 c -11.97516,-3.28927 -21.29567,2.77689 -21.29567,2.77689 0,0 17.24029,1.01767 21.29567,-2.77689 z"
         id="path71" /><path
         style="display:inline;fill:none;fill-opacity:1;fill-rule:evenodd;stroke:#000000;stroke-width:1;stroke-linecap:round;stroke-dasharray:none;stroke-opacity:1"
         d="m 320,282 c 2.66088,12.13026 -3.88256,21.12208 -3.88256,21.12208 0,0 -0.11813,-17.2699 3.88256,-21.12208 z"
         id="path72" /><path
         style="display:inline;fill:none;fill-opacity:1;fill-rule:evenodd;stroke:#000000;stroke-width:1;stroke-linecap:round;stroke-dasharray:none;stroke-opacity:1"
         d="m 323,277 c -12.28514,-1.81636 -20.80331,5.33283 -20.80331,5.33283 0,0 17.23678,-1.07552 20.80331,-5.33283 z"
         id="path73" /><path
         style="display:inline;fill:#000000;fill-opacity:1;fill-rule:evenodd;stroke:#000000;stroke-width:1;stroke-linecap:round;stroke-dasharray:none;stroke-opacity:1"
         d="m 326.38049,273.01737 c 4.7938,11.45613 -0.0304,21.47594 -0.0304,21.47594 0,0 -3.21432,-16.96855 0.0304,-21.47594 z"
         id="path74" /><path
         style="display:inline;fill:#000000;fill-opacity:1;fill-rule:evenodd;stroke:#000000;stroke-width:1;stroke-linecap:round;stroke-dasharray:none;stroke-opacity:1"
         d="m 335.64966,251.20746 c 6.53736,10.55871 3.35053,21.21298 3.35053,21.21298 0,0 -5.84529,-16.25103 -3.35053,-21.21298 z"
         id="path82" /><path
         style="display:inline;fill:none;fill-opacity:1;fill-rule:evenodd;stroke:#000000;stroke-width:1;stroke-linecap:round;stroke-dasharray:none;stroke-opacity:1"
         d="m 338,226 c -9.48687,8.01394 -9.75747,19.13135 -9.75747,19.13135 0,0 10.59228,-13.64064 9.75747,-19.13135 z"
         id="path83" /><path
         style="display:inline;fill:none;fill-opacity:1;fill-rule:evenodd;stroke:#000000;stroke-width:1;stroke-linecap:round;stroke-dasharray:none;stroke-opacity:1"
         d="m 327.08183,189.66881 c -4.16448,11.69961 1.19693,21.44257 1.19693,21.44257 0,0 2.28785,-17.11809 -1.19693,-21.44257 z"
         id="path84" /><path
         style="display:inline;fill:#000000;fill-opacity:1;fill-rule:evenodd;stroke:#000000;stroke-width:1;stroke-linecap:round;stroke-dasharray:none;stroke-opacity:1"
         d="m 324.48227,184.49724 c 5.95923,10.89547 16.79889,13.37962 16.79889,13.37962 0,0 -11.25204,-13.10174 -16.79889,-13.37962 z"
         id="path85" /><path
         style="display:inline;fill:none;fill-opacity:1;fill-rule:evenodd;stroke:#000000;stroke-width:1;stroke-linecap:round;stroke-dasharray:none;stroke-opacity:1"
         d="M 321.25555,180.56079 C 315.78435,191.70932 320,202 320,202 c 0,0 4.22457,-16.74563 1.25555,-21.43921 z"
         id="path86" /><path
         style="display:inline;fill:#000000;fill-opacity:1;fill-rule:evenodd;stroke:#000000;stroke-width:1;stroke-linecap:round;stroke-dasharray:none;stroke-opacity:1"
         d="m 250.77294,310.49444 c -6.43081,-10.62395 -17.36895,-12.63076 -17.36895,-12.63076 0,0 11.81525,12.59615 17.36895,12.63076 z"
         id="path87" /><path
         style="display:inline;fill:none;fill-opacity:1;fill-rule:evenodd;stroke:#000000;stroke-width:1;stroke-linecap:round;stroke-dasharray:none;stroke-opacity:1"
         d="m 242,310 c -11.00814,5.74841 -21.40109,1.79162 -21.40109,1.79162 0,0 16.63468,-4.64226 21.40109,-1.79162 z"
         id="path88" /></g></g><g
     id="layer2"
     transform="translate(-168.82915,-142.6514)"><rect
       style="fill:none;fill-rule:evenodd;stroke:none;stroke-width:0.979475;stroke-linecap:round;stroke-dasharray:none"
       id="rect1"
       width="174.3459"
       height="174.3459"
       x="168.82915"
       y="142.6514" /></g></svg>
